<svg width="120" height="24" viewBox="0 0 120 24" fill="none" xmlns="http://www.w3.org/2000/svg">
<path fill-rule="evenodd" clip-rule="evenodd" d="M38.8085 8.87459L43.6485 9.29459C44.5285 9.36459 44.8785 10.4646 44.2085 11.0446L40.5385 14.2246L41.6385 18.9546C41.8385 19.8146 40.9085 20.4946 40.1485 20.0346L35.9985 17.5246L31.8485 20.0246C31.0885 20.4846 30.1585 19.8046 30.3585 18.9446L31.4585 14.2246L27.7885 11.0446C27.1185 10.4646 27.4785 9.36459 28.3585 9.29459L33.1885 8.88459L35.0785 4.42459C35.4185 3.61459 36.5785 3.61459 36.9185 4.42459L38.8085 8.87459ZM32.2385 17.9246L35.9985 15.6546L39.7685 17.9346L38.7685 13.6546L42.0885 10.7746L37.7085 10.3946L35.9985 6.35459L34.2985 10.3846L29.9185 10.7646L33.2385 13.6446L32.2385 17.9246Z" fill="#F6CB04"/>
<path fill-rule="evenodd" clip-rule="evenodd" d="M62.8085 8.87459L67.6485 9.29459C68.5285 9.36459 68.8785 10.4646 68.2085 11.0446L64.5385 14.2246L65.6385 18.9546C65.8385 19.8146 64.9085 20.4946 64.1485 20.0346L59.9985 17.5246L55.8485 20.0246C55.0885 20.4846 54.1585 19.8046 54.3585 18.9446L55.4585 14.2246L51.7885 11.0446C51.1185 10.4646 51.4785 9.36459 52.3585 9.29459L57.1885 8.88459L59.0785 4.42459C59.4185 3.61459 60.5785 3.61459 60.9185 4.42459L62.8085 8.87459ZM56.2385 17.9246L59.9985 15.6546L63.7685 17.9346L62.7685 13.6546L66.0885 10.7746L61.7085 10.3946L59.9985 6.35459L58.2985 10.3846L53.9185 10.7646L57.2385 13.6446L56.2385 17.9246Z" fill="#F6CB04"/>
<path fill-rule="evenodd" clip-rule="evenodd" d="M86.8085 8.87459L91.6485 9.29459C92.5285 9.36459 92.8785 10.4646 92.2085 11.0446L88.5385 14.2246L89.6385 18.9546C89.8385 19.8146 88.9085 20.4946 88.1485 20.0346L83.9985 17.5246L79.8485 20.0246C79.0885 20.4846 78.1585 19.8046 78.3585 18.9446L79.4585 14.2246L75.7885 11.0446C75.1185 10.4646 75.4785 9.36459 76.3585 9.29459L81.1885 8.88459L83.0785 4.42459C83.4185 3.61459 84.5785 3.61459 84.9185 4.42459L86.8085 8.87459ZM80.2385 17.9246L83.9985 15.6546L87.7685 17.9346L86.7685 13.6546L90.0885 10.7746L85.7085 10.3946L83.9985 6.35459L82.2985 10.3846L77.9185 10.7646L81.2385 13.6446L80.2385 17.9246Z" fill="#F6CB04"/>
<path fill-rule="evenodd" clip-rule="evenodd" d="M110.809 8.87459L115.649 9.29459C116.529 9.36459 116.879 10.4646 116.209 11.0446L112.539 14.2246L113.639 18.9546C113.839 19.8146 112.909 20.4946 112.149 20.0346L107.999 17.5246L103.849 20.0246C103.089 20.4846 102.159 19.8046 102.359 18.9446L103.459 14.2246L99.7885 11.0446C99.1185 10.4646 99.4785 9.36459 100.359 9.29459L105.189 8.88459L107.079 4.42459C107.419 3.61459 108.579 3.61459 108.919 4.42459L110.809 8.87459ZM104.239 17.9246L107.999 15.6546L111.769 17.9346L110.769 13.6546L114.089 10.7746L109.709 10.3946L107.999 6.35459L106.299 10.3846L101.919 10.7646L105.239 13.6446L104.239 17.9246Z" fill="#F6CB04"/>
<path fill-rule="evenodd" clip-rule="evenodd" d="M14.8085 8.87459L19.6485 9.29459C20.5285 9.36459 20.8785 10.4646 20.2085 11.0446L16.5385 14.2246L17.6385 18.9546C17.8385 19.8146 16.9085 20.4946 16.1485 20.0346L11.9985 17.5246L7.84854 20.0246C7.08854 20.4846 6.15854 19.8046 6.35854 18.9446L7.45854 14.2246L3.78854 11.0446C3.11854 10.4646 3.47854 9.36459 4.35854 9.29459L9.18854 8.88459L11.0785 4.42459C11.4185 3.61459 12.5785 3.61459 12.9185 4.42459L14.8085 8.87459ZM11.9985 6.35459V15.6546L15.7685 17.9346L14.7685 13.6546L18.0885 10.7746L13.7085 10.3946L11.9985 6.35459Z" fill="#F6CB04"/>
</svg>
