<svg width="120" height="24" viewBox="0 0 120 24" fill="none" xmlns="http://www.w3.org/2000/svg">
<path fill-rule="evenodd" clip-rule="evenodd" d="M110.809 8.87459L115.649 9.29459C116.529 9.36459 116.879 10.4646 116.209 11.0446L112.539 14.2246L113.639 18.9546C113.839 19.8146 112.909 20.4946 112.149 20.0346L107.999 17.5246L103.849 20.0246C103.089 20.4846 102.159 19.8046 102.359 18.9446L103.459 14.2246L99.7885 11.0446C99.1185 10.4646 99.4785 9.36459 100.359 9.29459L105.189 8.88459L107.079 4.42459C107.419 3.61459 108.579 3.61459 108.919 4.42459L110.809 8.87459ZM104.239 17.9246L107.999 15.6546L111.769 17.9346L110.769 13.6546L114.089 10.7746L109.709 10.3946L107.999 6.35459L106.299 10.3846L101.919 10.7646L105.239 13.6446L104.239 17.9246Z" fill="#F6CB04"/>
<path d="M12 17.5196L16.15 20.0296C16.91 20.4896 17.84 19.8096 17.64 18.9496L16.54 14.2296L20.21 11.0496C20.88 10.4696 20.52 9.36959 19.64 9.29959L14.81 8.88959L12.92 4.42959C12.58 3.61959 11.42 3.61959 11.08 4.42959L9.19 8.87959L4.36 9.28959C3.48 9.35959 3.12 10.4596 3.79 11.0396L7.46 14.2196L6.36 18.9396C6.16 19.7996 7.09 20.4796 7.85 20.0196L12 17.5196Z" fill="#F6CB04"/>
<path d="M60 17.5196L64.15 20.0296C64.91 20.4896 65.84 19.8096 65.64 18.9496L64.54 14.2296L68.21 11.0496C68.88 10.4696 68.52 9.36959 67.64 9.29959L62.81 8.88959L60.92 4.42959C60.58 3.61959 59.42 3.61959 59.08 4.42959L57.19 8.87959L52.36 9.28959C51.48 9.35959 51.12 10.4596 51.79 11.0396L55.46 14.2196L54.36 18.9396C54.16 19.7996 55.09 20.4796 55.85 20.0196L60 17.5196Z" fill="#F6CB04"/>
<path d="M36 17.5196L40.15 20.0296C40.91 20.4896 41.84 19.8096 41.64 18.9496L40.54 14.2296L44.21 11.0496C44.88 10.4696 44.52 9.36959 43.64 9.29959L38.81 8.88959L36.92 4.42959C36.58 3.61959 35.42 3.61959 35.08 4.42959L33.19 8.87959L28.36 9.28959C27.48 9.35959 27.12 10.4596 27.79 11.0396L31.46 14.2196L30.36 18.9396C30.16 19.7996 31.09 20.4796 31.85 20.0196L36 17.5196Z" fill="#F6CB04"/>
<path fill-rule="evenodd" clip-rule="evenodd" d="M86.8085 8.87459L91.6485 9.29459C92.5285 9.36459 92.8785 10.4646 92.2085 11.0446L88.5385 14.2246L89.6385 18.9546C89.8385 19.8146 88.9085 20.4946 88.1485 20.0346L83.9985 17.5246L79.8485 20.0246C79.0885 20.4846 78.1585 19.8046 78.3585 18.9446L79.4585 14.2246L75.7885 11.0446C75.1185 10.4646 75.4785 9.36459 76.3585 9.29459L81.1885 8.88459L83.0785 4.42459C83.4185 3.61459 84.5785 3.61459 84.9185 4.42459L86.8085 8.87459ZM83.9985 6.35459V15.6546L87.7685 17.9346L86.7685 13.6546L90.0885 10.7746L85.7085 10.3946L83.9985 6.35459Z" fill="#F6CB04"/>
</svg>
